<svg xmlns="http://www.w3.org/2000/svg" viewBox="0 0 290 290"><defs><style>.a{fill:#f2d543;}</style></defs><path class="a" d="M106.32,261.92c1.89,2.94-.09,6.88-1.93,9.29a21.17,21.17,0,0,1-3.52,4c-1.19.93-2.28-.15-3.21-1A16.58,16.58,0,0,1,93,258c.25-1-.91-2-1.64-2.45-.58-.33-2.19-1-2.62,0a11.32,11.32,0,0,1-5.72,6c-1.76.72-4.42.75-5.58-.84-1.87-2.56.08-6.63,1.26-9.07.78-1.61,1.65-3.19,2.59-4.72.65-1,1.62-3.28,3-3.38l-1-.07h0l-1.06-3.42a9.57,9.57,0,0,1-1.83.44,2.1,2.1,0,0,1-.79,0c.14,0,.23.05.26.15a2.7,2.7,0,0,1-.54-1.59c-.12-2,1.18-4,2.32-5.57A10.45,10.45,0,0,1,86,229.6c1.06-.41,2.53-.56,3.09.31a3.35,3.35,0,0,0,3.11,1.51c1.17-.29.94-1.41.44-2.2a8.5,8.5,0,0,0-8.22-3.6c-3.23.46-5.63,3.12-7.36,5.69s-3,5.78-1.5,8.8a7.68,7.68,0,0,0,3.58,3.56,7.87,7.87,0,0,0,5.75.09c2.11-.61,0-2.89-1.06-3.42-2.28-1.17-4.12-.06-5.45,1.86a48.48,48.48,0,0,0-3.62,6.2c-2,4-3.84,8.81-1,12.88a10.94,10.94,0,0,0,10.48,4.38c3.91-.66,7-3.78,8.57-7.26l-4.26-2.47a20.39,20.39,0,0,0,4.33,17.76c2.16,2.57,5.48,5.74,9.07,5.68,1.86,0,3-1.25,4.15-2.53a29.07,29.07,0,0,0,3.46-4.36c2.15-3.53,2.57-7.69.28-11.25a3.4,3.4,0,0,0-3.12-1.51c-1.17.29-.94,1.41-.43,2.2Z"/><path class="a" d="M214.71,31.94c.12-1.81.28-3.68.5-5.62a24.14,24.14,0,0,0,0-5.57,12,12,0,0,0-2.33-5.45,3.65,3.65,0,0,1-2.15-.92,5.63,5.63,0,0,0-2.51-1.22,9.36,9.36,0,0,0-4.35.18,4.44,4.44,0,0,1-4.15-.85l-5.14,5q-5.1,5.34-9.9,10.3a78.85,78.85,0,0,0-8.52,10.47q-2.89,4.06-5.81,7.78t-5.48,7.74a102.87,102.87,0,0,0-6.94,11c-2.14,3.85-4.21,7.59-6.25,11.21q-6.37,11.57-12.26,22.89c-2.87,5.53-5.69,11.18-8.48,16.88a15.15,15.15,0,0,0-2.52-4.34,14.69,14.69,0,0,1-2.57-4.42,22.11,22.11,0,0,1-1.7-7.22,39.77,39.77,0,0,0-1.46-7.91,66.66,66.66,0,0,0-2.51-6.78c-.93-2.14-1.75-4.3-2.46-6.46a35.7,35.7,0,0,1-.68-8.53A30.52,30.52,0,0,0,116,61.27C113.75,57.73,112.23,53,111.4,47a82.76,82.76,0,0,0-3.79-16.08c-1.21-4.36-2.53-7.34-4-9s-4-3.11-7.8-4.47c-2.32-.61-4.2-.39-5.65.68A47.55,47.55,0,0,1,92.41,28q.65,5.31,1.3,10.8l1.32,11A80.06,80.06,0,0,0,97,60.19,129.24,129.24,0,0,1,99.87,76c.77,2.62,1.58,5.15,2.45,7.65A66.41,66.41,0,0,1,104.38,91a253.89,253.89,0,0,0,5.07,25.36,40.46,40.46,0,0,1,6.37,13.73,36,36,0,0,0,4.14,9.95c-.58,1.52-1.15,3-1.68,4.54q-3.91,11.09-8.45,26.48c-1.45,4.9-2.85,10-4.24,15.36s-2.51,10.82-3.41,16.43a135.32,135.32,0,0,0-1.64,17.24,65.06,65.06,0,0,0,1.74,17.33,34.28,34.28,0,0,0,2.57,5.94,32,32,0,0,1,2.61,6.26,5.87,5.87,0,0,1,2.62,2.05,16.55,16.55,0,0,0,2.35,2.75,27.05,27.05,0,0,0,2.8.84,8.11,8.11,0,0,1,2.88,1.51,5.94,5.94,0,0,1,2.38,1.57,5.76,5.76,0,0,0,2.39,1.58,18.89,18.89,0,0,0,4.86,2.61,33.21,33.21,0,0,0,5.09,1.59,15.25,15.25,0,0,0,5.84-.54c1.62-.54,3.17-1.11,4.67-1.75,2.36-1,4.3-1.75,5.8-2.38a11.29,11.29,0,0,0,4.29-3.55,69.65,69.65,0,0,0,14-26.32,61.27,61.27,0,0,1,2.09-6.5,16.34,16.34,0,0,0,1.24-5,33.1,33.1,0,0,0-.25-7.73,33.87,33.87,0,0,1-.26-7.74,29.38,29.38,0,0,0-.16-9.75L166,178.48a28.47,28.47,0,0,0-3.09-3.33,8,8,0,0,1-1.18-2.73,2.82,2.82,0,0,0-1.42-2,2.58,2.58,0,0,0-1.64-1,8.8,8.8,0,0,1-2.26-.56,6.48,6.48,0,0,1-1.66-1.15c-.38-.41-1-.33-1.82.22a2.5,2.5,0,0,1-.89-1.76c-.09-.77-.58-1.11-1.46-1-1.34.16-2.7,1.12-4.05,2.85a7.34,7.34,0,0,0-5.46.83,15.84,15.84,0,0,1-4.7,1.75,10.63,10.63,0,0,0,4.23,5.72,20.86,20.86,0,0,1,5.16,4.95,6.3,6.3,0,0,0,.9,4.62,19.53,19.53,0,0,1,2.09,3.45,11.39,11.39,0,0,1,1.18,4.09,45.62,45.62,0,0,1,.28,5.18q0,5.42-.89,13.6a68.88,68.88,0,0,1-2.86,14.19q-2.31,6-4,9.93a59,59,0,0,1-4.28,7.94,17.43,17.43,0,0,1-3,4.25q-2.24,2.44-3.57,2.61a5.15,5.15,0,0,1-4.49-1,15.47,15.47,0,0,1-3.87-4.09,23.44,23.44,0,0,1-2.69-5.58,27.49,27.49,0,0,1-1.33-5.42,65.54,65.54,0,0,1,.51-21c1.27-6.23,2.57-12.34,3.86-18.35q2.34-11.42,3.45-21.83a59.94,59.94,0,0,1,4.85-18.64,10.08,10.08,0,0,0,6-1.9,32.49,32.49,0,0,1,4.85-3.12,40.31,40.31,0,0,1,5-6.5c1.79-1.91,3.58-3.85,5.36-5.88,1.56-2,3.27-4,5.16-6.18s3.6-4.19,5.16-6.19a64.08,64.08,0,0,0,3.39-5.46,36.17,36.17,0,0,1,3.43-5.14,78.09,78.09,0,0,0,5.84-7.62c1.71-2.57,3.44-5.08,5.16-7.54.77-1,1.52-1.87,2.21-2.63a13.59,13.59,0,0,0,1.88-2.58,40.58,40.58,0,0,0,3.07-5.44c.88-1.9,1.9-3.82,3-5.76a98.77,98.77,0,0,1,6-9,49.13,49.13,0,0,0,5.34-8.91c.31-1.16.6-2.38.9-3.65a39.74,39.74,0,0,1,1.21-4,13,13,0,0,1,2.33-4.49,17,17,0,0,0,2.61-4.88q1.35-2.84,2.53-5.7a31.27,31.27,0,0,1,3.19-5.78A10.75,10.75,0,0,1,214.71,31.94ZM194.76,47a234,234,0,0,0-11.92,21.5c0,.23-.29.38-1,.46a19.26,19.26,0,0,1-4.27,6.58,15.87,15.87,0,0,0-3.94,6.55,92.11,92.11,0,0,0-11.82,15.26c-3.5,5.59-5.68,4.73-5.68,4.73-.28-.42-.44-.35-.48.22s-.31.78-.77.6a100.66,100.66,0,0,1,6.55-12.76,121.13,121.13,0,0,0,6.61-12.43,5.65,5.65,0,0,0-2,3.1A13.48,13.48,0,0,1,163.91,85a6.34,6.34,0,0,1,1.91-5.12,7.69,7.69,0,0,0,2.25-5.16c.39-.5.59-.63.62-.41s.24.2.66-.08A82.83,82.83,0,0,1,176.09,60a104.49,104.49,0,0,0,7.07-14.17A30.65,30.65,0,0,1,187,41.18a12.41,12.41,0,0,0,3.07-5.26,72.46,72.46,0,0,0,6.06-7.14,43.16,43.16,0,0,1,6.44-6.84,1,1,0,0,1,.4.63c0,.21.26.31.71.25A66.39,66.39,0,0,1,194.76,47Z"/></svg>